<mxfile host="Electron" modified="2023-05-22T07:57:25.621Z" agent="5.0 (Windows NT 10.0; Win64; x64) AppleWebKit/537.36 (KHTML, like Gecko) draw.io/20.3.0 Chrome/104.0.5112.114 Electron/20.1.3 Safari/537.36" etag="F2B59kzTB5PgAdFaHPQZ" compressed="false" version="20.3.0" type="device">
  <diagram name="PA005A" id="r5pnv25qWxkjvZlbge1s">
    <mxGraphModel dx="1420" dy="855" grid="1" gridSize="2" guides="1" tooltips="1" connect="1" arrows="1" fold="1" page="1" pageScale="1" pageWidth="1169" pageHeight="827" math="0" shadow="0">
      <root>
        <mxCell id="NN_VJS9fBAGXD2zNihbb-0" />
        <mxCell id="NN_VJS9fBAGXD2zNihbb-1" value="Grid" style="locked=1;" parent="NN_VJS9fBAGXD2zNihbb-0" />
        <mxCell id="NN_VJS9fBAGXD2zNihbb-2" value="Grid" style="group;noLabel=1;" parent="NN_VJS9fBAGXD2zNihbb-1" vertex="1" connectable="0">
          <mxGeometry x="16" y="16" width="1136" height="800" as="geometry" />
        </mxCell>
        <mxCell id="NN_VJS9fBAGXD2zNihbb-3" style="vsdxID=1362;edgeStyle=none;startArrow=none;endArrow=none;startSize=5;endSize=5;strokeColor=#D8D8D8;spacingTop=0;spacingBottom=0;spacingLeft=0;spacingRight=0;verticalAlign=middle;html=1;labelBackgroundColor=#ffffff;rounded=0;fillOpacity=80;strokeOpacity=20;" parent="NN_VJS9fBAGXD2zNihbb-2" edge="1">
          <mxGeometry relative="1" as="geometry">
            <Array as="points" />
            <mxPoint x="832" y="800" as="sourcePoint" />
            <mxPoint x="832" as="targetPoint" />
          </mxGeometry>
        </mxCell>
        <mxCell id="NN_VJS9fBAGXD2zNihbb-4" style="vsdxID=1363;edgeStyle=none;startArrow=none;endArrow=none;startSize=5;endSize=5;strokeColor=#D8D8D8;spacingTop=0;spacingBottom=0;spacingLeft=0;spacingRight=0;verticalAlign=middle;html=1;labelBackgroundColor=#ffffff;rounded=0;fillOpacity=80;strokeOpacity=20;" parent="NN_VJS9fBAGXD2zNihbb-2" edge="1">
          <mxGeometry relative="1" as="geometry">
            <Array as="points" />
            <mxPoint x="816" y="800" as="sourcePoint" />
            <mxPoint x="816" as="targetPoint" />
          </mxGeometry>
        </mxCell>
        <mxCell id="NN_VJS9fBAGXD2zNihbb-5" style="vsdxID=1364;edgeStyle=none;startArrow=none;endArrow=none;startSize=5;endSize=5;strokeColor=#0F0F0F;spacingTop=0;spacingBottom=0;spacingLeft=0;spacingRight=0;verticalAlign=middle;html=1;labelBackgroundColor=#ffffff;rounded=0;fillOpacity=80;strokeOpacity=20;" parent="NN_VJS9fBAGXD2zNihbb-2" edge="1">
          <mxGeometry relative="1" as="geometry">
            <Array as="points" />
            <mxPoint x="800" y="800" as="sourcePoint" />
            <mxPoint x="800" as="targetPoint" />
          </mxGeometry>
        </mxCell>
        <mxCell id="NN_VJS9fBAGXD2zNihbb-6" style="vsdxID=1396;edgeStyle=none;startArrow=none;endArrow=none;startSize=5;endSize=5;strokeColor=#0F0F0F;spacingTop=0;spacingBottom=0;spacingLeft=0;spacingRight=0;verticalAlign=middle;html=1;labelBackgroundColor=#ffffff;rounded=0;fillOpacity=80;strokeOpacity=20;" parent="NN_VJS9fBAGXD2zNihbb-2" edge="1">
          <mxGeometry relative="1" as="geometry">
            <Array as="points" />
            <mxPoint x="880" y="800" as="sourcePoint" />
            <mxPoint x="880" as="targetPoint" />
          </mxGeometry>
        </mxCell>
        <mxCell id="NN_VJS9fBAGXD2zNihbb-7" style="vsdxID=1397;edgeStyle=none;startArrow=none;endArrow=none;startSize=5;endSize=5;strokeColor=#D8D8D8;spacingTop=0;spacingBottom=0;spacingLeft=0;spacingRight=0;verticalAlign=middle;html=1;labelBackgroundColor=#ffffff;rounded=0;fillOpacity=80;strokeOpacity=20;" parent="NN_VJS9fBAGXD2zNihbb-2" edge="1">
          <mxGeometry relative="1" as="geometry">
            <Array as="points" />
            <mxPoint x="864" y="800" as="sourcePoint" />
            <mxPoint x="864" as="targetPoint" />
          </mxGeometry>
        </mxCell>
        <mxCell id="NN_VJS9fBAGXD2zNihbb-8" style="vsdxID=1398;edgeStyle=none;startArrow=none;endArrow=none;startSize=5;endSize=5;strokeColor=#D8D8D8;spacingTop=0;spacingBottom=0;spacingLeft=0;spacingRight=0;verticalAlign=middle;html=1;labelBackgroundColor=#ffffff;rounded=0;fillOpacity=80;strokeOpacity=20;" parent="NN_VJS9fBAGXD2zNihbb-2" edge="1">
          <mxGeometry relative="1" as="geometry">
            <Array as="points" />
            <mxPoint x="848" y="800" as="sourcePoint" />
            <mxPoint x="848" as="targetPoint" />
          </mxGeometry>
        </mxCell>
        <mxCell id="NN_VJS9fBAGXD2zNihbb-9" style="vsdxID=1362;edgeStyle=none;startArrow=none;endArrow=none;startSize=5;endSize=5;strokeColor=#D8D8D8;spacingTop=0;spacingBottom=0;spacingLeft=0;spacingRight=0;verticalAlign=middle;html=1;labelBackgroundColor=#ffffff;rounded=0;fillOpacity=80;strokeOpacity=20;" parent="NN_VJS9fBAGXD2zNihbb-2" edge="1">
          <mxGeometry relative="1" as="geometry">
            <Array as="points" />
            <mxPoint x="1024" y="800" as="sourcePoint" />
            <mxPoint x="1024" as="targetPoint" />
          </mxGeometry>
        </mxCell>
        <mxCell id="NN_VJS9fBAGXD2zNihbb-10" style="vsdxID=1363;edgeStyle=none;startArrow=none;endArrow=none;startSize=5;endSize=5;strokeColor=#D8D8D8;spacingTop=0;spacingBottom=0;spacingLeft=0;spacingRight=0;verticalAlign=middle;html=1;labelBackgroundColor=#ffffff;rounded=0;fillOpacity=80;strokeOpacity=20;" parent="NN_VJS9fBAGXD2zNihbb-2" edge="1">
          <mxGeometry relative="1" as="geometry">
            <Array as="points" />
            <mxPoint x="1008" y="800" as="sourcePoint" />
            <mxPoint x="1008" as="targetPoint" />
          </mxGeometry>
        </mxCell>
        <mxCell id="NN_VJS9fBAGXD2zNihbb-11" style="vsdxID=1364;edgeStyle=none;startArrow=none;endArrow=none;startSize=5;endSize=5;strokeColor=#D8D8D8;spacingTop=0;spacingBottom=0;spacingLeft=0;spacingRight=0;verticalAlign=middle;html=1;labelBackgroundColor=#ffffff;rounded=0;fillOpacity=80;strokeOpacity=20;" parent="NN_VJS9fBAGXD2zNihbb-2" edge="1">
          <mxGeometry relative="1" as="geometry">
            <Array as="points" />
            <mxPoint x="992" y="800" as="sourcePoint" />
            <mxPoint x="992" as="targetPoint" />
          </mxGeometry>
        </mxCell>
        <mxCell id="NN_VJS9fBAGXD2zNihbb-12" style="vsdxID=1365;edgeStyle=none;startArrow=none;endArrow=none;startSize=5;endSize=5;strokeColor=#D8D8D8;spacingTop=0;spacingBottom=0;spacingLeft=0;spacingRight=0;verticalAlign=middle;html=1;labelBackgroundColor=#ffffff;rounded=0;fillOpacity=80;strokeOpacity=20;" parent="NN_VJS9fBAGXD2zNihbb-2" edge="1">
          <mxGeometry relative="1" as="geometry">
            <Array as="points" />
            <mxPoint x="976" y="800" as="sourcePoint" />
            <mxPoint x="976" as="targetPoint" />
          </mxGeometry>
        </mxCell>
        <mxCell id="NN_VJS9fBAGXD2zNihbb-13" style="vsdxID=1366;edgeStyle=none;startArrow=none;endArrow=none;startSize=5;endSize=5;strokeColor=#D8D8D8;spacingTop=0;spacingBottom=0;spacingLeft=0;spacingRight=0;verticalAlign=middle;html=1;labelBackgroundColor=#ffffff;rounded=0;fillOpacity=80;strokeOpacity=20;" parent="NN_VJS9fBAGXD2zNihbb-2" edge="1">
          <mxGeometry relative="1" as="geometry">
            <Array as="points" />
            <mxPoint x="944" y="800" as="sourcePoint" />
            <mxPoint x="944" as="targetPoint" />
          </mxGeometry>
        </mxCell>
        <mxCell id="NN_VJS9fBAGXD2zNihbb-14" style="vsdxID=1367;edgeStyle=none;startArrow=none;endArrow=none;startSize=5;endSize=5;strokeColor=#D8D8D8;spacingTop=0;spacingBottom=0;spacingLeft=0;spacingRight=0;verticalAlign=middle;html=1;labelBackgroundColor=#ffffff;rounded=0;fillOpacity=80;strokeOpacity=20;" parent="NN_VJS9fBAGXD2zNihbb-2" edge="1">
          <mxGeometry relative="1" as="geometry">
            <Array as="points" />
            <mxPoint x="928" y="800" as="sourcePoint" />
            <mxPoint x="928" as="targetPoint" />
          </mxGeometry>
        </mxCell>
        <mxCell id="NN_VJS9fBAGXD2zNihbb-15" style="vsdxID=1368;edgeStyle=none;startArrow=none;endArrow=none;startSize=5;endSize=5;strokeColor=#D8D8D8;spacingTop=0;spacingBottom=0;spacingLeft=0;spacingRight=0;verticalAlign=middle;html=1;labelBackgroundColor=#ffffff;rounded=0;fillOpacity=80;strokeOpacity=20;" parent="NN_VJS9fBAGXD2zNihbb-2" edge="1">
          <mxGeometry relative="1" as="geometry">
            <Array as="points" />
            <mxPoint x="912" y="800" as="sourcePoint" />
            <mxPoint x="912" as="targetPoint" />
          </mxGeometry>
        </mxCell>
        <mxCell id="NN_VJS9fBAGXD2zNihbb-16" style="vsdxID=1369;edgeStyle=none;startArrow=none;endArrow=none;startSize=5;endSize=5;strokeColor=#D8D8D8;spacingTop=0;spacingBottom=0;spacingLeft=0;spacingRight=0;verticalAlign=middle;html=1;labelBackgroundColor=#ffffff;rounded=0;fillOpacity=80;strokeOpacity=20;" parent="NN_VJS9fBAGXD2zNihbb-2" edge="1">
          <mxGeometry relative="1" as="geometry">
            <Array as="points" />
            <mxPoint x="896" y="800" as="sourcePoint" />
            <mxPoint x="896" as="targetPoint" />
          </mxGeometry>
        </mxCell>
        <mxCell id="NN_VJS9fBAGXD2zNihbb-17" style="vsdxID=1370;edgeStyle=none;startArrow=none;endArrow=none;startSize=5;endSize=5;strokeColor=#0F0F0F;spacingTop=0;spacingBottom=0;spacingLeft=0;spacingRight=0;verticalAlign=middle;html=1;labelBackgroundColor=#ffffff;rounded=0;fillOpacity=80;strokeOpacity=20;" parent="NN_VJS9fBAGXD2zNihbb-2" edge="1">
          <mxGeometry relative="1" as="geometry">
            <Array as="points" />
            <mxPoint x="960" y="800" as="sourcePoint" />
            <mxPoint x="960" as="targetPoint" />
          </mxGeometry>
        </mxCell>
        <mxCell id="NN_VJS9fBAGXD2zNihbb-18" style="vsdxID=1398;edgeStyle=none;startArrow=none;endArrow=none;startSize=5;endSize=5;strokeColor=#0F0F0F;spacingTop=0;spacingBottom=0;spacingLeft=0;spacingRight=0;verticalAlign=middle;html=1;labelBackgroundColor=#ffffff;rounded=0;fillOpacity=80;strokeOpacity=20;" parent="NN_VJS9fBAGXD2zNihbb-2" edge="1">
          <mxGeometry relative="1" as="geometry">
            <Array as="points" />
            <mxPoint x="1040" y="800" as="sourcePoint" />
            <mxPoint x="1040" as="targetPoint" />
          </mxGeometry>
        </mxCell>
        <mxCell id="NN_VJS9fBAGXD2zNihbb-19" style="vsdxID=1363;edgeStyle=none;startArrow=none;endArrow=none;startSize=5;endSize=5;strokeColor=#0F0F0F;spacingTop=0;spacingBottom=0;spacingLeft=0;spacingRight=0;verticalAlign=middle;html=1;labelBackgroundColor=#ffffff;rounded=0;fillOpacity=80;strokeOpacity=20;" parent="NN_VJS9fBAGXD2zNihbb-2" edge="1">
          <mxGeometry relative="1" as="geometry">
            <Array as="points" />
            <mxPoint x="1120" y="800" as="sourcePoint" />
            <mxPoint x="1120" as="targetPoint" />
          </mxGeometry>
        </mxCell>
        <mxCell id="NN_VJS9fBAGXD2zNihbb-20" style="vsdxID=1364;edgeStyle=none;startArrow=none;endArrow=none;startSize=5;endSize=5;strokeColor=#D8D8D8;spacingTop=0;spacingBottom=0;spacingLeft=0;spacingRight=0;verticalAlign=middle;html=1;labelBackgroundColor=#ffffff;rounded=0;fillOpacity=80;strokeOpacity=20;" parent="NN_VJS9fBAGXD2zNihbb-2" edge="1">
          <mxGeometry relative="1" as="geometry">
            <Array as="points" />
            <mxPoint x="1104" y="800" as="sourcePoint" />
            <mxPoint x="1104" as="targetPoint" />
          </mxGeometry>
        </mxCell>
        <mxCell id="NN_VJS9fBAGXD2zNihbb-21" style="vsdxID=1365;edgeStyle=none;startArrow=none;endArrow=none;startSize=5;endSize=5;strokeColor=#D8D8D8;spacingTop=0;spacingBottom=0;spacingLeft=0;spacingRight=0;verticalAlign=middle;html=1;labelBackgroundColor=#ffffff;rounded=0;fillOpacity=80;strokeOpacity=20;" parent="NN_VJS9fBAGXD2zNihbb-2" edge="1">
          <mxGeometry relative="1" as="geometry">
            <Array as="points" />
            <mxPoint x="1088" y="800" as="sourcePoint" />
            <mxPoint x="1088" as="targetPoint" />
          </mxGeometry>
        </mxCell>
        <mxCell id="NN_VJS9fBAGXD2zNihbb-22" style="vsdxID=1366;edgeStyle=none;startArrow=none;endArrow=none;startSize=5;endSize=5;strokeColor=#D8D8D8;spacingTop=0;spacingBottom=0;spacingLeft=0;spacingRight=0;verticalAlign=middle;html=1;labelBackgroundColor=#ffffff;rounded=0;fillOpacity=80;strokeOpacity=20;" parent="NN_VJS9fBAGXD2zNihbb-2" edge="1">
          <mxGeometry relative="1" as="geometry">
            <Array as="points" />
            <mxPoint x="1056" y="800" as="sourcePoint" />
            <mxPoint x="1056" as="targetPoint" />
          </mxGeometry>
        </mxCell>
        <mxCell id="NN_VJS9fBAGXD2zNihbb-23" style="vsdxID=1370;edgeStyle=none;startArrow=none;endArrow=none;startSize=5;endSize=5;strokeColor=#D8D8D8;spacingTop=0;spacingBottom=0;spacingLeft=0;spacingRight=0;verticalAlign=middle;html=1;labelBackgroundColor=#ffffff;rounded=0;fillOpacity=80;strokeOpacity=20;" parent="NN_VJS9fBAGXD2zNihbb-2" edge="1">
          <mxGeometry relative="1" as="geometry">
            <Array as="points" />
            <mxPoint x="1072" y="800" as="sourcePoint" />
            <mxPoint x="1072" as="targetPoint" />
          </mxGeometry>
        </mxCell>
        <mxCell id="NN_VJS9fBAGXD2zNihbb-24" style="vsdxID=1362;edgeStyle=none;startArrow=none;endArrow=none;startSize=5;endSize=5;strokeColor=#D8D8D8;spacingTop=0;spacingBottom=0;spacingLeft=0;spacingRight=0;verticalAlign=middle;html=1;labelBackgroundColor=#ffffff;rounded=0;fillOpacity=80;strokeOpacity=20;" parent="NN_VJS9fBAGXD2zNihbb-2" edge="1">
          <mxGeometry relative="1" as="geometry">
            <Array as="points" />
            <mxPoint x="576" as="sourcePoint" />
            <mxPoint x="576" y="800" as="targetPoint" />
          </mxGeometry>
        </mxCell>
        <mxCell id="NN_VJS9fBAGXD2zNihbb-25" style="vsdxID=1363;edgeStyle=none;startArrow=none;endArrow=none;startSize=5;endSize=5;strokeColor=#0F0F0F;spacingTop=0;spacingBottom=0;spacingLeft=0;spacingRight=0;verticalAlign=middle;html=1;labelBackgroundColor=#ffffff;rounded=0;fillOpacity=80;strokeOpacity=20;" parent="NN_VJS9fBAGXD2zNihbb-2" edge="1">
          <mxGeometry relative="1" as="geometry">
            <Array as="points" />
            <mxPoint x="560" as="sourcePoint" />
            <mxPoint x="560" y="800" as="targetPoint" />
          </mxGeometry>
        </mxCell>
        <mxCell id="NN_VJS9fBAGXD2zNihbb-26" style="vsdxID=1364;edgeStyle=none;startArrow=none;endArrow=none;startSize=5;endSize=5;strokeColor=#D8D8D8;spacingTop=0;spacingBottom=0;spacingLeft=0;spacingRight=0;verticalAlign=middle;html=1;labelBackgroundColor=#ffffff;rounded=0;fillOpacity=80;strokeOpacity=20;" parent="NN_VJS9fBAGXD2zNihbb-2" edge="1">
          <mxGeometry relative="1" as="geometry">
            <Array as="points" />
            <mxPoint x="544" as="sourcePoint" />
            <mxPoint x="544" y="800" as="targetPoint" />
          </mxGeometry>
        </mxCell>
        <mxCell id="NN_VJS9fBAGXD2zNihbb-27" style="vsdxID=1365;edgeStyle=none;startArrow=none;endArrow=none;startSize=5;endSize=5;strokeColor=#D8D8D8;spacingTop=0;spacingBottom=0;spacingLeft=0;spacingRight=0;verticalAlign=middle;html=1;labelBackgroundColor=#ffffff;rounded=0;fillOpacity=80;strokeOpacity=20;" parent="NN_VJS9fBAGXD2zNihbb-2" edge="1">
          <mxGeometry relative="1" as="geometry">
            <Array as="points" />
            <mxPoint x="528" as="sourcePoint" />
            <mxPoint x="528" y="800" as="targetPoint" />
          </mxGeometry>
        </mxCell>
        <mxCell id="NN_VJS9fBAGXD2zNihbb-28" style="vsdxID=1366;edgeStyle=none;startArrow=none;endArrow=none;startSize=5;endSize=5;strokeColor=#D8D8D8;spacingTop=0;spacingBottom=0;spacingLeft=0;spacingRight=0;verticalAlign=middle;html=1;labelBackgroundColor=#ffffff;rounded=0;fillOpacity=80;strokeOpacity=20;" parent="NN_VJS9fBAGXD2zNihbb-2" edge="1">
          <mxGeometry relative="1" as="geometry">
            <Array as="points" />
            <mxPoint x="496" as="sourcePoint" />
            <mxPoint x="496" y="800" as="targetPoint" />
          </mxGeometry>
        </mxCell>
        <mxCell id="NN_VJS9fBAGXD2zNihbb-29" style="vsdxID=1367;edgeStyle=none;startArrow=none;endArrow=none;startSize=5;endSize=5;strokeColor=#0F0F0F;spacingTop=0;spacingBottom=0;spacingLeft=0;spacingRight=0;verticalAlign=middle;html=1;labelBackgroundColor=#ffffff;rounded=0;fillOpacity=80;strokeOpacity=20;" parent="NN_VJS9fBAGXD2zNihbb-2" edge="1">
          <mxGeometry relative="1" as="geometry">
            <Array as="points" />
            <mxPoint x="480" as="sourcePoint" />
            <mxPoint x="480" y="800" as="targetPoint" />
          </mxGeometry>
        </mxCell>
        <mxCell id="NN_VJS9fBAGXD2zNihbb-30" style="vsdxID=1368;edgeStyle=none;startArrow=none;endArrow=none;startSize=5;endSize=5;strokeColor=#D8D8D8;spacingTop=0;spacingBottom=0;spacingLeft=0;spacingRight=0;verticalAlign=middle;html=1;labelBackgroundColor=#ffffff;rounded=0;fillOpacity=80;strokeOpacity=20;" parent="NN_VJS9fBAGXD2zNihbb-2" edge="1">
          <mxGeometry relative="1" as="geometry">
            <Array as="points" />
            <mxPoint x="464" as="sourcePoint" />
            <mxPoint x="464" y="800" as="targetPoint" />
          </mxGeometry>
        </mxCell>
        <mxCell id="NN_VJS9fBAGXD2zNihbb-31" style="vsdxID=1369;edgeStyle=none;startArrow=none;endArrow=none;startSize=5;endSize=5;strokeColor=#D8D8D8;spacingTop=0;spacingBottom=0;spacingLeft=0;spacingRight=0;verticalAlign=middle;html=1;labelBackgroundColor=#ffffff;rounded=0;fillOpacity=80;strokeOpacity=20;" parent="NN_VJS9fBAGXD2zNihbb-2" edge="1">
          <mxGeometry relative="1" as="geometry">
            <Array as="points" />
            <mxPoint x="448" as="sourcePoint" />
            <mxPoint x="448" y="800" as="targetPoint" />
          </mxGeometry>
        </mxCell>
        <mxCell id="NN_VJS9fBAGXD2zNihbb-32" style="vsdxID=1370;edgeStyle=none;startArrow=none;endArrow=none;startSize=5;endSize=5;strokeColor=#D8D8D8;spacingTop=0;spacingBottom=0;spacingLeft=0;spacingRight=0;verticalAlign=middle;html=1;labelBackgroundColor=#ffffff;rounded=0;fillOpacity=80;strokeOpacity=20;" parent="NN_VJS9fBAGXD2zNihbb-2" edge="1">
          <mxGeometry relative="1" as="geometry">
            <Array as="points" />
            <mxPoint x="512" as="sourcePoint" />
            <mxPoint x="512" y="800" as="targetPoint" />
          </mxGeometry>
        </mxCell>
        <mxCell id="NN_VJS9fBAGXD2zNihbb-33" style="vsdxID=1371;edgeStyle=none;startArrow=none;endArrow=none;startSize=5;endSize=5;strokeColor=#D8D8D8;spacingTop=0;spacingBottom=0;spacingLeft=0;spacingRight=0;verticalAlign=middle;html=1;labelBackgroundColor=#ffffff;rounded=0;fillOpacity=80;strokeOpacity=20;" parent="NN_VJS9fBAGXD2zNihbb-2" edge="1">
          <mxGeometry relative="1" as="geometry">
            <Array as="points" />
            <mxPoint x="432" as="sourcePoint" />
            <mxPoint x="432" y="800" as="targetPoint" />
          </mxGeometry>
        </mxCell>
        <mxCell id="NN_VJS9fBAGXD2zNihbb-34" style="vsdxID=1372;edgeStyle=none;startArrow=none;endArrow=none;startSize=5;endSize=5;strokeColor=#D8D8D8;spacingTop=0;spacingBottom=0;spacingLeft=0;spacingRight=0;verticalAlign=middle;html=1;labelBackgroundColor=#ffffff;rounded=0;fillOpacity=80;strokeOpacity=20;" parent="NN_VJS9fBAGXD2zNihbb-2" edge="1">
          <mxGeometry relative="1" as="geometry">
            <Array as="points" />
            <mxPoint x="416" as="sourcePoint" />
            <mxPoint x="416" y="800" as="targetPoint" />
          </mxGeometry>
        </mxCell>
        <mxCell id="NN_VJS9fBAGXD2zNihbb-35" style="vsdxID=1373;edgeStyle=none;startArrow=none;endArrow=none;startSize=5;endSize=5;strokeColor=#0F0F0F;spacingTop=0;spacingBottom=0;spacingLeft=0;spacingRight=0;verticalAlign=middle;html=1;labelBackgroundColor=#ffffff;rounded=0;fillOpacity=80;strokeOpacity=20;" parent="NN_VJS9fBAGXD2zNihbb-2" edge="1">
          <mxGeometry relative="1" as="geometry">
            <Array as="points" />
            <mxPoint x="400" as="sourcePoint" />
            <mxPoint x="400" y="800" as="targetPoint" />
          </mxGeometry>
        </mxCell>
        <mxCell id="NN_VJS9fBAGXD2zNihbb-36" style="vsdxID=1374;edgeStyle=none;startArrow=none;endArrow=none;startSize=5;endSize=5;strokeColor=#D8D8D8;spacingTop=0;spacingBottom=0;spacingLeft=0;spacingRight=0;verticalAlign=middle;html=1;labelBackgroundColor=#ffffff;rounded=0;fillOpacity=80;strokeOpacity=20;" parent="NN_VJS9fBAGXD2zNihbb-2" edge="1">
          <mxGeometry relative="1" as="geometry">
            <Array as="points" />
            <mxPoint x="384" as="sourcePoint" />
            <mxPoint x="384" y="800" as="targetPoint" />
          </mxGeometry>
        </mxCell>
        <mxCell id="NN_VJS9fBAGXD2zNihbb-37" style="vsdxID=1375;edgeStyle=none;startArrow=none;endArrow=none;startSize=5;endSize=5;strokeColor=#D8D8D8;spacingTop=0;spacingBottom=0;spacingLeft=0;spacingRight=0;verticalAlign=middle;html=1;labelBackgroundColor=#ffffff;rounded=0;fillOpacity=80;strokeOpacity=20;" parent="NN_VJS9fBAGXD2zNihbb-2" edge="1">
          <mxGeometry relative="1" as="geometry">
            <Array as="points" />
            <mxPoint x="352" as="sourcePoint" />
            <mxPoint x="352" y="800" as="targetPoint" />
          </mxGeometry>
        </mxCell>
        <mxCell id="NN_VJS9fBAGXD2zNihbb-38" style="vsdxID=1376;edgeStyle=none;startArrow=none;endArrow=none;startSize=5;endSize=5;strokeColor=#D8D8D8;spacingTop=0;spacingBottom=0;spacingLeft=0;spacingRight=0;verticalAlign=middle;html=1;labelBackgroundColor=#ffffff;rounded=0;fillOpacity=80;strokeOpacity=20;" parent="NN_VJS9fBAGXD2zNihbb-2" edge="1">
          <mxGeometry relative="1" as="geometry">
            <Array as="points" />
            <mxPoint x="336" as="sourcePoint" />
            <mxPoint x="336" y="800" as="targetPoint" />
          </mxGeometry>
        </mxCell>
        <mxCell id="NN_VJS9fBAGXD2zNihbb-39" style="vsdxID=1377;edgeStyle=none;startArrow=none;endArrow=none;startSize=5;endSize=5;strokeColor=#0F0F0F;spacingTop=0;spacingBottom=0;spacingLeft=0;spacingRight=0;verticalAlign=middle;html=1;labelBackgroundColor=#ffffff;rounded=0;fillOpacity=80;strokeOpacity=20;" parent="NN_VJS9fBAGXD2zNihbb-2" edge="1">
          <mxGeometry relative="1" as="geometry">
            <Array as="points" />
            <mxPoint x="320" as="sourcePoint" />
            <mxPoint x="320" y="800" as="targetPoint" />
          </mxGeometry>
        </mxCell>
        <mxCell id="NN_VJS9fBAGXD2zNihbb-40" style="vsdxID=1378;edgeStyle=none;startArrow=none;endArrow=none;startSize=5;endSize=5;strokeColor=#D8D8D8;spacingTop=0;spacingBottom=0;spacingLeft=0;spacingRight=0;verticalAlign=middle;html=1;labelBackgroundColor=#ffffff;rounded=0;fillOpacity=80;strokeOpacity=20;" parent="NN_VJS9fBAGXD2zNihbb-2" edge="1">
          <mxGeometry relative="1" as="geometry">
            <Array as="points" />
            <mxPoint x="304" as="sourcePoint" />
            <mxPoint x="304" y="800" as="targetPoint" />
          </mxGeometry>
        </mxCell>
        <mxCell id="NN_VJS9fBAGXD2zNihbb-41" style="vsdxID=1379;edgeStyle=none;startArrow=none;endArrow=none;startSize=5;endSize=5;strokeColor=#D8D8D8;spacingTop=0;spacingBottom=0;spacingLeft=0;spacingRight=0;verticalAlign=middle;html=1;labelBackgroundColor=#ffffff;rounded=0;fillOpacity=80;strokeOpacity=20;" parent="NN_VJS9fBAGXD2zNihbb-2" edge="1">
          <mxGeometry relative="1" as="geometry">
            <Array as="points" />
            <mxPoint x="368" as="sourcePoint" />
            <mxPoint x="368" y="800" as="targetPoint" />
          </mxGeometry>
        </mxCell>
        <mxCell id="NN_VJS9fBAGXD2zNihbb-42" style="vsdxID=1380;edgeStyle=none;startArrow=none;endArrow=none;startSize=5;endSize=5;strokeColor=#D8D8D8;spacingTop=0;spacingBottom=0;spacingLeft=0;spacingRight=0;verticalAlign=middle;html=1;labelBackgroundColor=#ffffff;rounded=0;fillOpacity=80;strokeOpacity=20;" parent="NN_VJS9fBAGXD2zNihbb-2" edge="1">
          <mxGeometry relative="1" as="geometry">
            <Array as="points" />
            <mxPoint x="288" as="sourcePoint" />
            <mxPoint x="288" y="800" as="targetPoint" />
          </mxGeometry>
        </mxCell>
        <mxCell id="NN_VJS9fBAGXD2zNihbb-43" style="vsdxID=1381;edgeStyle=none;startArrow=none;endArrow=none;startSize=5;endSize=5;strokeColor=#D8D8D8;spacingTop=0;spacingBottom=0;spacingLeft=0;spacingRight=0;verticalAlign=middle;html=1;labelBackgroundColor=#ffffff;rounded=0;fillOpacity=80;strokeOpacity=20;" parent="NN_VJS9fBAGXD2zNihbb-2" edge="1">
          <mxGeometry relative="1" as="geometry">
            <Array as="points" />
            <mxPoint x="272" as="sourcePoint" />
            <mxPoint x="272" y="800" as="targetPoint" />
          </mxGeometry>
        </mxCell>
        <mxCell id="NN_VJS9fBAGXD2zNihbb-44" style="vsdxID=1382;edgeStyle=none;startArrow=none;endArrow=none;startSize=5;endSize=5;strokeColor=#D8D8D8;spacingTop=0;spacingBottom=0;spacingLeft=0;spacingRight=0;verticalAlign=middle;html=1;labelBackgroundColor=#ffffff;rounded=0;fillOpacity=80;strokeOpacity=20;" parent="NN_VJS9fBAGXD2zNihbb-2" edge="1">
          <mxGeometry relative="1" as="geometry">
            <Array as="points" />
            <mxPoint x="256" as="sourcePoint" />
            <mxPoint x="256" y="800" as="targetPoint" />
          </mxGeometry>
        </mxCell>
        <mxCell id="NN_VJS9fBAGXD2zNihbb-45" style="vsdxID=1383;edgeStyle=none;startArrow=none;endArrow=none;startSize=5;endSize=5;strokeColor=#0F0F0F;spacingTop=0;spacingBottom=0;spacingLeft=0;spacingRight=0;verticalAlign=middle;html=1;labelBackgroundColor=#ffffff;rounded=0;fillOpacity=80;strokeOpacity=20;" parent="NN_VJS9fBAGXD2zNihbb-2" edge="1">
          <mxGeometry relative="1" as="geometry">
            <Array as="points" />
            <mxPoint x="240" as="sourcePoint" />
            <mxPoint x="240" y="800" as="targetPoint" />
          </mxGeometry>
        </mxCell>
        <mxCell id="NN_VJS9fBAGXD2zNihbb-46" style="vsdxID=1384;edgeStyle=none;startArrow=none;endArrow=none;startSize=5;endSize=5;strokeColor=#D8D8D8;spacingTop=0;spacingBottom=0;spacingLeft=0;spacingRight=0;verticalAlign=middle;html=1;labelBackgroundColor=#ffffff;rounded=0;fillOpacity=80;strokeOpacity=20;" parent="NN_VJS9fBAGXD2zNihbb-2" edge="1">
          <mxGeometry relative="1" as="geometry">
            <Array as="points" />
            <mxPoint x="208" as="sourcePoint" />
            <mxPoint x="208" y="800" as="targetPoint" />
          </mxGeometry>
        </mxCell>
        <mxCell id="NN_VJS9fBAGXD2zNihbb-47" style="vsdxID=1385;edgeStyle=none;startArrow=none;endArrow=none;startSize=5;endSize=5;strokeColor=#D8D8D8;spacingTop=0;spacingBottom=0;spacingLeft=0;spacingRight=0;verticalAlign=middle;html=1;labelBackgroundColor=#ffffff;rounded=0;fillOpacity=80;strokeOpacity=20;" parent="NN_VJS9fBAGXD2zNihbb-2" edge="1">
          <mxGeometry relative="1" as="geometry">
            <Array as="points" />
            <mxPoint x="192" as="sourcePoint" />
            <mxPoint x="192" y="800" as="targetPoint" />
          </mxGeometry>
        </mxCell>
        <mxCell id="NN_VJS9fBAGXD2zNihbb-48" style="vsdxID=1386;edgeStyle=none;startArrow=none;endArrow=none;startSize=5;endSize=5;strokeColor=#D8D8D8;spacingTop=0;spacingBottom=0;spacingLeft=0;spacingRight=0;verticalAlign=middle;html=1;labelBackgroundColor=#ffffff;rounded=0;fillOpacity=80;strokeOpacity=20;" parent="NN_VJS9fBAGXD2zNihbb-2" edge="1">
          <mxGeometry relative="1" as="geometry">
            <Array as="points" />
            <mxPoint x="176" as="sourcePoint" />
            <mxPoint x="176" y="800" as="targetPoint" />
          </mxGeometry>
        </mxCell>
        <mxCell id="NN_VJS9fBAGXD2zNihbb-49" style="vsdxID=1387;edgeStyle=none;startArrow=none;endArrow=none;startSize=5;endSize=5;strokeColor=#0F0F0F;spacingTop=0;spacingBottom=0;spacingLeft=0;spacingRight=0;verticalAlign=middle;html=1;labelBackgroundColor=#ffffff;rounded=0;fillOpacity=80;strokeOpacity=20;" parent="NN_VJS9fBAGXD2zNihbb-2" edge="1">
          <mxGeometry relative="1" as="geometry">
            <Array as="points" />
            <mxPoint x="160" as="sourcePoint" />
            <mxPoint x="160" y="800" as="targetPoint" />
          </mxGeometry>
        </mxCell>
        <mxCell id="NN_VJS9fBAGXD2zNihbb-50" style="vsdxID=1388;edgeStyle=none;startArrow=none;endArrow=none;startSize=5;endSize=5;strokeColor=#D8D8D8;spacingTop=0;spacingBottom=0;spacingLeft=0;spacingRight=0;verticalAlign=middle;html=1;labelBackgroundColor=#ffffff;rounded=0;fillOpacity=80;strokeOpacity=20;" parent="NN_VJS9fBAGXD2zNihbb-2" edge="1">
          <mxGeometry relative="1" as="geometry">
            <Array as="points" />
            <mxPoint x="224" as="sourcePoint" />
            <mxPoint x="224" y="800" as="targetPoint" />
          </mxGeometry>
        </mxCell>
        <mxCell id="NN_VJS9fBAGXD2zNihbb-51" style="vsdxID=1389;edgeStyle=none;startArrow=none;endArrow=none;startSize=5;endSize=5;strokeColor=#D8D8D8;spacingTop=0;spacingBottom=0;spacingLeft=0;spacingRight=0;verticalAlign=middle;html=1;labelBackgroundColor=#ffffff;rounded=0;fillOpacity=80;strokeOpacity=20;" parent="NN_VJS9fBAGXD2zNihbb-2" edge="1">
          <mxGeometry relative="1" as="geometry">
            <Array as="points" />
            <mxPoint x="144" as="sourcePoint" />
            <mxPoint x="144" y="800" as="targetPoint" />
          </mxGeometry>
        </mxCell>
        <mxCell id="NN_VJS9fBAGXD2zNihbb-52" style="vsdxID=1390;edgeStyle=none;startArrow=none;endArrow=none;startSize=5;endSize=5;strokeColor=#D8D8D8;spacingTop=0;spacingBottom=0;spacingLeft=0;spacingRight=0;verticalAlign=middle;html=1;labelBackgroundColor=#ffffff;rounded=0;fillOpacity=80;strokeOpacity=20;" parent="NN_VJS9fBAGXD2zNihbb-2" edge="1">
          <mxGeometry relative="1" as="geometry">
            <Array as="points" />
            <mxPoint x="128" as="sourcePoint" />
            <mxPoint x="128" y="800" as="targetPoint" />
          </mxGeometry>
        </mxCell>
        <mxCell id="NN_VJS9fBAGXD2zNihbb-53" style="vsdxID=1391;edgeStyle=none;startArrow=none;endArrow=none;startSize=5;endSize=5;strokeColor=#D8D8D8;spacingTop=0;spacingBottom=0;spacingLeft=0;spacingRight=0;verticalAlign=middle;html=1;labelBackgroundColor=#ffffff;rounded=0;fillOpacity=80;strokeOpacity=20;" parent="NN_VJS9fBAGXD2zNihbb-2" edge="1">
          <mxGeometry relative="1" as="geometry">
            <Array as="points" />
            <mxPoint x="112" as="sourcePoint" />
            <mxPoint x="112" y="800" as="targetPoint" />
          </mxGeometry>
        </mxCell>
        <mxCell id="NN_VJS9fBAGXD2zNihbb-54" style="vsdxID=1392;edgeStyle=none;startArrow=none;endArrow=none;startSize=5;endSize=5;strokeColor=#D8D8D8;spacingTop=0;spacingBottom=0;spacingLeft=0;spacingRight=0;verticalAlign=middle;html=1;labelBackgroundColor=#ffffff;rounded=0;fillOpacity=80;strokeOpacity=20;" parent="NN_VJS9fBAGXD2zNihbb-2" edge="1">
          <mxGeometry relative="1" as="geometry">
            <mxPoint x="-1" as="offset" />
            <Array as="points" />
            <mxPoint x="48" as="sourcePoint" />
            <mxPoint x="48" y="800" as="targetPoint" />
          </mxGeometry>
        </mxCell>
        <mxCell id="NN_VJS9fBAGXD2zNihbb-55" style="vsdxID=1393;edgeStyle=none;startArrow=none;endArrow=none;startSize=5;endSize=5;strokeColor=#D8D8D8;spacingTop=0;spacingBottom=0;spacingLeft=0;spacingRight=0;verticalAlign=middle;html=1;labelBackgroundColor=#ffffff;rounded=0;fillOpacity=80;strokeOpacity=20;" parent="NN_VJS9fBAGXD2zNihbb-2" edge="1">
          <mxGeometry relative="1" as="geometry">
            <Array as="points" />
            <mxPoint x="64" as="sourcePoint" />
            <mxPoint x="64" y="800" as="targetPoint" />
          </mxGeometry>
        </mxCell>
        <mxCell id="NN_VJS9fBAGXD2zNihbb-56" style="vsdxID=1394;edgeStyle=none;startArrow=none;endArrow=none;startSize=5;endSize=5;strokeColor=#D8D8D8;spacingTop=0;spacingBottom=0;spacingLeft=0;spacingRight=0;verticalAlign=middle;html=1;labelBackgroundColor=#ffffff;rounded=0;fillOpacity=80;strokeOpacity=20;" parent="NN_VJS9fBAGXD2zNihbb-2" edge="1">
          <mxGeometry relative="1" as="geometry">
            <mxPoint as="offset" />
            <Array as="points" />
            <mxPoint x="16" as="sourcePoint" />
            <mxPoint x="16" y="800" as="targetPoint" />
          </mxGeometry>
        </mxCell>
        <mxCell id="NN_VJS9fBAGXD2zNihbb-57" style="vsdxID=1395;edgeStyle=none;startArrow=none;endArrow=none;startSize=5;endSize=5;strokeColor=#0F0F0F;spacingTop=0;spacingBottom=0;spacingLeft=0;spacingRight=0;verticalAlign=middle;html=1;labelBackgroundColor=#ffffff;rounded=0;fillOpacity=80;strokeOpacity=20;" parent="NN_VJS9fBAGXD2zNihbb-2" edge="1">
          <mxGeometry relative="1" as="geometry">
            <Array as="points" />
            <mxPoint x="80" as="sourcePoint" />
            <mxPoint x="80" y="800" as="targetPoint" />
          </mxGeometry>
        </mxCell>
        <mxCell id="NN_VJS9fBAGXD2zNihbb-58" style="vsdxID=1396;edgeStyle=none;startArrow=none;endArrow=none;startSize=5;endSize=5;strokeColor=#D8D8D8;spacingTop=0;spacingBottom=0;spacingLeft=0;spacingRight=0;verticalAlign=middle;html=1;labelBackgroundColor=#ffffff;rounded=0;fillOpacity=80;strokeOpacity=20;" parent="NN_VJS9fBAGXD2zNihbb-2" edge="1">
          <mxGeometry relative="1" as="geometry">
            <Array as="points" />
            <mxPoint x="624" as="sourcePoint" />
            <mxPoint x="624" y="800" as="targetPoint" />
          </mxGeometry>
        </mxCell>
        <mxCell id="NN_VJS9fBAGXD2zNihbb-59" style="vsdxID=1397;edgeStyle=none;startArrow=none;endArrow=none;startSize=5;endSize=5;strokeColor=#D8D8D8;spacingTop=0;spacingBottom=0;spacingLeft=0;spacingRight=0;verticalAlign=middle;html=1;labelBackgroundColor=#ffffff;rounded=0;fillOpacity=80;strokeOpacity=20;" parent="NN_VJS9fBAGXD2zNihbb-2" edge="1">
          <mxGeometry relative="1" as="geometry">
            <Array as="points" />
            <mxPoint x="608" as="sourcePoint" />
            <mxPoint x="608" y="800" as="targetPoint" />
          </mxGeometry>
        </mxCell>
        <mxCell id="NN_VJS9fBAGXD2zNihbb-60" style="vsdxID=1398;edgeStyle=none;startArrow=none;endArrow=none;startSize=5;endSize=5;strokeColor=#D8D8D8;spacingTop=0;spacingBottom=0;spacingLeft=0;spacingRight=0;verticalAlign=middle;html=1;labelBackgroundColor=#ffffff;rounded=0;fillOpacity=80;strokeOpacity=20;" parent="NN_VJS9fBAGXD2zNihbb-2" edge="1">
          <mxGeometry relative="1" as="geometry">
            <Array as="points" />
            <mxPoint x="592" as="sourcePoint" />
            <mxPoint x="592" y="800" as="targetPoint" />
          </mxGeometry>
        </mxCell>
        <mxCell id="NN_VJS9fBAGXD2zNihbb-61" style="vsdxID=1399;edgeStyle=none;startArrow=none;endArrow=none;startSize=5;endSize=5;strokeColor=#D8D8D8;spacingTop=0;spacingBottom=0;spacingLeft=0;spacingRight=0;verticalAlign=middle;html=1;labelBackgroundColor=#ffffff;rounded=0;fillOpacity=80;strokeOpacity=20;" parent="NN_VJS9fBAGXD2zNihbb-2" edge="1">
          <mxGeometry relative="1" as="geometry">
            <Array as="points" />
            <mxPoint x="96" as="sourcePoint" />
            <mxPoint x="96" y="800" as="targetPoint" />
          </mxGeometry>
        </mxCell>
        <mxCell id="NN_VJS9fBAGXD2zNihbb-62" style="vsdxID=1403;edgeStyle=none;startArrow=none;endArrow=none;startSize=5;endSize=5;strokeColor=#D8D8D8;spacingTop=0;spacingBottom=0;spacingLeft=0;spacingRight=0;verticalAlign=middle;html=1;labelBackgroundColor=#ffffff;rounded=0;fillOpacity=80;strokeOpacity=20;" parent="NN_VJS9fBAGXD2zNihbb-2" edge="1">
          <mxGeometry relative="1" as="geometry">
            <Array as="points" />
            <mxPoint x="32" as="sourcePoint" />
            <mxPoint x="32" y="800" as="targetPoint" />
          </mxGeometry>
        </mxCell>
        <mxCell id="NN_VJS9fBAGXD2zNihbb-63" style="vsdxID=1362;edgeStyle=none;startArrow=none;endArrow=none;startSize=5;endSize=5;strokeColor=#D8D8D8;spacingTop=0;spacingBottom=0;spacingLeft=0;spacingRight=0;verticalAlign=middle;html=1;labelBackgroundColor=#ffffff;rounded=0;fillOpacity=80;strokeOpacity=20;" parent="NN_VJS9fBAGXD2zNihbb-2" edge="1">
          <mxGeometry relative="1" as="geometry">
            <Array as="points" />
            <mxPoint x="768" as="sourcePoint" />
            <mxPoint x="768" y="800" as="targetPoint" />
          </mxGeometry>
        </mxCell>
        <mxCell id="NN_VJS9fBAGXD2zNihbb-64" style="vsdxID=1363;edgeStyle=none;startArrow=none;endArrow=none;startSize=5;endSize=5;strokeColor=#D8D8D8;spacingTop=0;spacingBottom=0;spacingLeft=0;spacingRight=0;verticalAlign=middle;html=1;labelBackgroundColor=#ffffff;rounded=0;fillOpacity=80;strokeOpacity=20;" parent="NN_VJS9fBAGXD2zNihbb-2" edge="1">
          <mxGeometry relative="1" as="geometry">
            <Array as="points" />
            <mxPoint x="752" as="sourcePoint" />
            <mxPoint x="752" y="800" as="targetPoint" />
          </mxGeometry>
        </mxCell>
        <mxCell id="NN_VJS9fBAGXD2zNihbb-65" style="vsdxID=1364;edgeStyle=none;startArrow=none;endArrow=none;startSize=5;endSize=5;strokeColor=#D8D8D8;spacingTop=0;spacingBottom=0;spacingLeft=0;spacingRight=0;verticalAlign=middle;html=1;labelBackgroundColor=#ffffff;rounded=0;fillOpacity=80;strokeOpacity=20;" parent="NN_VJS9fBAGXD2zNihbb-2" edge="1">
          <mxGeometry relative="1" as="geometry">
            <Array as="points" />
            <mxPoint x="736" as="sourcePoint" />
            <mxPoint x="736" y="800" as="targetPoint" />
          </mxGeometry>
        </mxCell>
        <mxCell id="NN_VJS9fBAGXD2zNihbb-66" style="vsdxID=1365;edgeStyle=none;startArrow=none;endArrow=none;startSize=5;endSize=5;strokeColor=#0F0F0F;spacingTop=0;spacingBottom=0;spacingLeft=0;spacingRight=0;verticalAlign=middle;html=1;labelBackgroundColor=#ffffff;rounded=0;fillOpacity=80;strokeOpacity=20;" parent="NN_VJS9fBAGXD2zNihbb-2" edge="1">
          <mxGeometry relative="1" as="geometry">
            <Array as="points" />
            <mxPoint x="720" as="sourcePoint" />
            <mxPoint x="720" y="800" as="targetPoint" />
          </mxGeometry>
        </mxCell>
        <mxCell id="NN_VJS9fBAGXD2zNihbb-67" style="vsdxID=1366;edgeStyle=none;startArrow=none;endArrow=none;startSize=5;endSize=5;strokeColor=#D8D8D8;spacingTop=0;spacingBottom=0;spacingLeft=0;spacingRight=0;verticalAlign=middle;html=1;labelBackgroundColor=#ffffff;rounded=0;fillOpacity=80;strokeOpacity=20;" parent="NN_VJS9fBAGXD2zNihbb-2" edge="1">
          <mxGeometry relative="1" as="geometry">
            <Array as="points" />
            <mxPoint x="688" as="sourcePoint" />
            <mxPoint x="688" y="800" as="targetPoint" />
          </mxGeometry>
        </mxCell>
        <mxCell id="NN_VJS9fBAGXD2zNihbb-68" style="vsdxID=1367;edgeStyle=none;startArrow=none;endArrow=none;startSize=5;endSize=5;strokeColor=#D8D8D8;spacingTop=0;spacingBottom=0;spacingLeft=0;spacingRight=0;verticalAlign=middle;html=1;labelBackgroundColor=#ffffff;rounded=0;fillOpacity=80;strokeOpacity=20;" parent="NN_VJS9fBAGXD2zNihbb-2" edge="1">
          <mxGeometry relative="1" as="geometry">
            <Array as="points" />
            <mxPoint x="672" as="sourcePoint" />
            <mxPoint x="672" y="800" as="targetPoint" />
          </mxGeometry>
        </mxCell>
        <mxCell id="NN_VJS9fBAGXD2zNihbb-69" style="vsdxID=1368;edgeStyle=none;startArrow=none;endArrow=none;startSize=5;endSize=5;strokeColor=#D8D8D8;spacingTop=0;spacingBottom=0;spacingLeft=0;spacingRight=0;verticalAlign=middle;html=1;labelBackgroundColor=#ffffff;rounded=0;fillOpacity=80;strokeOpacity=20;" parent="NN_VJS9fBAGXD2zNihbb-2" edge="1">
          <mxGeometry relative="1" as="geometry">
            <Array as="points" />
            <mxPoint x="656" as="sourcePoint" />
            <mxPoint x="656" y="800" as="targetPoint" />
          </mxGeometry>
        </mxCell>
        <mxCell id="NN_VJS9fBAGXD2zNihbb-70" style="vsdxID=1369;edgeStyle=none;startArrow=none;endArrow=none;startSize=5;endSize=5;strokeColor=#0F0F0F;spacingTop=0;spacingBottom=0;spacingLeft=0;spacingRight=0;verticalAlign=middle;html=1;labelBackgroundColor=#ffffff;rounded=0;fillOpacity=80;strokeOpacity=20;" parent="NN_VJS9fBAGXD2zNihbb-2" edge="1">
          <mxGeometry relative="1" as="geometry">
            <Array as="points" />
            <mxPoint x="640" as="sourcePoint" />
            <mxPoint x="640" y="800" as="targetPoint" />
          </mxGeometry>
        </mxCell>
        <mxCell id="NN_VJS9fBAGXD2zNihbb-71" style="vsdxID=1370;edgeStyle=none;startArrow=none;endArrow=none;startSize=5;endSize=5;strokeColor=#D8D8D8;spacingTop=0;spacingBottom=0;spacingLeft=0;spacingRight=0;verticalAlign=middle;html=1;labelBackgroundColor=#ffffff;rounded=0;fillOpacity=80;strokeOpacity=20;" parent="NN_VJS9fBAGXD2zNihbb-2" edge="1">
          <mxGeometry relative="1" as="geometry">
            <Array as="points" />
            <mxPoint x="704" as="sourcePoint" />
            <mxPoint x="704" y="800" as="targetPoint" />
          </mxGeometry>
        </mxCell>
        <mxCell id="NN_VJS9fBAGXD2zNihbb-72" style="vsdxID=1398;edgeStyle=none;startArrow=none;endArrow=none;startSize=5;endSize=5;strokeColor=#D8D8D8;spacingTop=0;spacingBottom=0;spacingLeft=0;spacingRight=0;verticalAlign=middle;html=1;labelBackgroundColor=#ffffff;rounded=0;fillOpacity=80;strokeOpacity=20;" parent="NN_VJS9fBAGXD2zNihbb-2" edge="1">
          <mxGeometry relative="1" as="geometry">
            <Array as="points" />
            <mxPoint x="784" as="sourcePoint" />
            <mxPoint x="784" y="800" as="targetPoint" />
          </mxGeometry>
        </mxCell>
        <mxCell id="NN_VJS9fBAGXD2zNihbb-73" style="vsdxID=1309;edgeStyle=none;startArrow=none;endArrow=none;startSize=5;endSize=5;strokeColor=#d8d8d8;spacingTop=0;spacingBottom=0;spacingLeft=0;spacingRight=0;verticalAlign=middle;html=1;labelBackgroundColor=#ffffff;rounded=0;fillOpacity=80;strokeOpacity=20;" parent="NN_VJS9fBAGXD2zNihbb-2" edge="1">
          <mxGeometry relative="1" as="geometry">
            <Array as="points" />
            <mxPoint y="48" as="sourcePoint" />
            <mxPoint x="1136" y="48" as="targetPoint" />
          </mxGeometry>
        </mxCell>
        <mxCell id="NN_VJS9fBAGXD2zNihbb-74" style="vsdxID=1310;edgeStyle=none;startArrow=none;endArrow=none;startSize=5;endSize=5;strokeColor=#7f7f7f;spacingTop=0;spacingBottom=0;spacingLeft=0;spacingRight=0;verticalAlign=middle;html=1;labelBackgroundColor=#ffffff;rounded=0;fillOpacity=80;strokeOpacity=20;" parent="NN_VJS9fBAGXD2zNihbb-2" edge="1">
          <mxGeometry relative="1" as="geometry">
            <Array as="points" />
            <mxPoint y="80" as="sourcePoint" />
            <mxPoint x="1136" y="80" as="targetPoint" />
          </mxGeometry>
        </mxCell>
        <mxCell id="NN_VJS9fBAGXD2zNihbb-75" style="vsdxID=1311;edgeStyle=none;startArrow=none;endArrow=none;startSize=5;endSize=5;strokeColor=#d8d8d8;spacingTop=0;spacingBottom=0;spacingLeft=0;spacingRight=0;verticalAlign=middle;html=1;labelBackgroundColor=#ffffff;rounded=0;fillOpacity=80;strokeOpacity=20;" parent="NN_VJS9fBAGXD2zNihbb-2" edge="1">
          <mxGeometry relative="1" as="geometry">
            <Array as="points" />
            <mxPoint y="96" as="sourcePoint" />
            <mxPoint x="1136" y="96" as="targetPoint" />
          </mxGeometry>
        </mxCell>
        <mxCell id="NN_VJS9fBAGXD2zNihbb-76" style="vsdxID=1312;edgeStyle=none;startArrow=none;endArrow=none;startSize=5;endSize=5;strokeColor=#d8d8d8;spacingTop=0;spacingBottom=0;spacingLeft=0;spacingRight=0;verticalAlign=middle;html=1;labelBackgroundColor=#ffffff;rounded=0;fillOpacity=80;strokeOpacity=20;" parent="NN_VJS9fBAGXD2zNihbb-2" edge="1">
          <mxGeometry relative="1" as="geometry">
            <Array as="points" />
            <mxPoint y="112" as="sourcePoint" />
            <mxPoint x="1136" y="112" as="targetPoint" />
          </mxGeometry>
        </mxCell>
        <mxCell id="NN_VJS9fBAGXD2zNihbb-77" style="vsdxID=1313;edgeStyle=none;startArrow=none;endArrow=none;startSize=5;endSize=5;strokeColor=#d8d8d8;spacingTop=0;spacingBottom=0;spacingLeft=0;spacingRight=0;verticalAlign=middle;html=1;labelBackgroundColor=#ffffff;rounded=0;fillOpacity=80;strokeOpacity=20;" parent="NN_VJS9fBAGXD2zNihbb-2" edge="1">
          <mxGeometry relative="1" as="geometry">
            <Array as="points" />
            <mxPoint y="128" as="sourcePoint" />
            <mxPoint x="1136" y="128" as="targetPoint" />
          </mxGeometry>
        </mxCell>
        <mxCell id="NN_VJS9fBAGXD2zNihbb-78" style="vsdxID=1314;edgeStyle=none;startArrow=none;endArrow=none;startSize=5;endSize=5;strokeColor=#d8d8d8;spacingTop=0;spacingBottom=0;spacingLeft=0;spacingRight=0;verticalAlign=middle;html=1;labelBackgroundColor=#ffffff;rounded=0;fillOpacity=80;strokeOpacity=20;" parent="NN_VJS9fBAGXD2zNihbb-2" edge="1">
          <mxGeometry relative="1" as="geometry">
            <Array as="points" />
            <mxPoint y="64" as="sourcePoint" />
            <mxPoint x="1136" y="64" as="targetPoint" />
          </mxGeometry>
        </mxCell>
        <mxCell id="NN_VJS9fBAGXD2zNihbb-79" style="vsdxID=1315;edgeStyle=none;startArrow=none;endArrow=none;startSize=5;endSize=5;strokeColor=#d8d8d8;spacingTop=0;spacingBottom=0;spacingLeft=0;spacingRight=0;verticalAlign=middle;html=1;labelBackgroundColor=#ffffff;rounded=0;fillOpacity=80;strokeOpacity=20;" parent="NN_VJS9fBAGXD2zNihbb-2" edge="1">
          <mxGeometry relative="1" as="geometry">
            <Array as="points" />
            <mxPoint y="144" as="sourcePoint" />
            <mxPoint x="1136" y="144" as="targetPoint" />
          </mxGeometry>
        </mxCell>
        <mxCell id="NN_VJS9fBAGXD2zNihbb-80" style="vsdxID=1316;edgeStyle=none;startArrow=none;endArrow=none;startSize=5;endSize=5;strokeColor=#7f7f7f;spacingTop=0;spacingBottom=0;spacingLeft=0;spacingRight=0;verticalAlign=middle;html=1;labelBackgroundColor=#ffffff;rounded=0;fillOpacity=80;strokeOpacity=20;" parent="NN_VJS9fBAGXD2zNihbb-2" edge="1">
          <mxGeometry relative="1" as="geometry">
            <Array as="points" />
            <mxPoint y="160" as="sourcePoint" />
            <mxPoint x="1136" y="160" as="targetPoint" />
          </mxGeometry>
        </mxCell>
        <mxCell id="NN_VJS9fBAGXD2zNihbb-81" style="vsdxID=1317;edgeStyle=none;startArrow=none;endArrow=none;startSize=5;endSize=5;strokeColor=#d8d8d8;spacingTop=0;spacingBottom=0;spacingLeft=0;spacingRight=0;verticalAlign=middle;html=1;labelBackgroundColor=#ffffff;rounded=0;fillOpacity=80;strokeOpacity=20;" parent="NN_VJS9fBAGXD2zNihbb-2" edge="1">
          <mxGeometry relative="1" as="geometry">
            <Array as="points" />
            <mxPoint y="176" as="sourcePoint" />
            <mxPoint x="1136" y="176" as="targetPoint" />
          </mxGeometry>
        </mxCell>
        <mxCell id="NN_VJS9fBAGXD2zNihbb-82" style="vsdxID=1318;edgeStyle=none;startArrow=none;endArrow=none;startSize=5;endSize=5;strokeColor=#d8d8d8;spacingTop=0;spacingBottom=0;spacingLeft=0;spacingRight=0;verticalAlign=middle;html=1;labelBackgroundColor=#ffffff;rounded=0;fillOpacity=80;strokeOpacity=20;" parent="NN_VJS9fBAGXD2zNihbb-2" edge="1">
          <mxGeometry relative="1" as="geometry">
            <Array as="points" />
            <mxPoint y="192" as="sourcePoint" />
            <mxPoint x="1136" y="192" as="targetPoint" />
          </mxGeometry>
        </mxCell>
        <mxCell id="NN_VJS9fBAGXD2zNihbb-83" style="vsdxID=1319;edgeStyle=none;startArrow=none;endArrow=none;startSize=5;endSize=5;strokeColor=#d8d8d8;spacingTop=0;spacingBottom=0;spacingLeft=0;spacingRight=0;verticalAlign=middle;html=1;labelBackgroundColor=#ffffff;rounded=0;fillOpacity=80;strokeOpacity=20;" parent="NN_VJS9fBAGXD2zNihbb-2" edge="1">
          <mxGeometry relative="1" as="geometry">
            <Array as="points" />
            <mxPoint y="224" as="sourcePoint" />
            <mxPoint x="1136" y="224" as="targetPoint" />
          </mxGeometry>
        </mxCell>
        <mxCell id="NN_VJS9fBAGXD2zNihbb-84" style="vsdxID=1320;edgeStyle=none;startArrow=none;endArrow=none;startSize=5;endSize=5;strokeColor=#7f7f7f;spacingTop=0;spacingBottom=0;spacingLeft=0;spacingRight=0;verticalAlign=middle;html=1;labelBackgroundColor=#ffffff;rounded=0;fillOpacity=80;strokeOpacity=20;" parent="NN_VJS9fBAGXD2zNihbb-2" edge="1">
          <mxGeometry relative="1" as="geometry">
            <Array as="points" />
            <mxPoint y="240" as="sourcePoint" />
            <mxPoint x="1136" y="240" as="targetPoint" />
          </mxGeometry>
        </mxCell>
        <mxCell id="NN_VJS9fBAGXD2zNihbb-85" style="vsdxID=1321;edgeStyle=none;startArrow=none;endArrow=none;startSize=5;endSize=5;strokeColor=#d8d8d8;spacingTop=0;spacingBottom=0;spacingLeft=0;spacingRight=0;verticalAlign=middle;html=1;labelBackgroundColor=#ffffff;rounded=0;fillOpacity=80;strokeOpacity=20;" parent="NN_VJS9fBAGXD2zNihbb-2" edge="1">
          <mxGeometry relative="1" as="geometry">
            <Array as="points" />
            <mxPoint y="256" as="sourcePoint" />
            <mxPoint x="1136" y="256" as="targetPoint" />
          </mxGeometry>
        </mxCell>
        <mxCell id="NN_VJS9fBAGXD2zNihbb-86" style="vsdxID=1322;edgeStyle=none;startArrow=none;endArrow=none;startSize=5;endSize=5;strokeColor=#d8d8d8;spacingTop=0;spacingBottom=0;spacingLeft=0;spacingRight=0;verticalAlign=middle;html=1;labelBackgroundColor=#ffffff;rounded=0;fillOpacity=80;strokeOpacity=20;" parent="NN_VJS9fBAGXD2zNihbb-2" edge="1">
          <mxGeometry relative="1" as="geometry">
            <Array as="points" />
            <mxPoint y="272" as="sourcePoint" />
            <mxPoint x="1136" y="272" as="targetPoint" />
          </mxGeometry>
        </mxCell>
        <mxCell id="NN_VJS9fBAGXD2zNihbb-87" style="vsdxID=1323;edgeStyle=none;startArrow=none;endArrow=none;startSize=5;endSize=5;strokeColor=#d8d8d8;spacingTop=0;spacingBottom=0;spacingLeft=0;spacingRight=0;verticalAlign=middle;html=1;labelBackgroundColor=#ffffff;rounded=0;fillOpacity=80;strokeOpacity=20;" parent="NN_VJS9fBAGXD2zNihbb-2" edge="1">
          <mxGeometry relative="1" as="geometry">
            <Array as="points" />
            <mxPoint y="208" as="sourcePoint" />
            <mxPoint x="1136" y="208" as="targetPoint" />
          </mxGeometry>
        </mxCell>
        <mxCell id="NN_VJS9fBAGXD2zNihbb-88" style="vsdxID=1324;edgeStyle=none;startArrow=none;endArrow=none;startSize=5;endSize=5;strokeColor=#d8d8d8;spacingTop=0;spacingBottom=0;spacingLeft=0;spacingRight=0;verticalAlign=middle;html=1;labelBackgroundColor=#ffffff;rounded=0;fillOpacity=80;strokeOpacity=20;" parent="NN_VJS9fBAGXD2zNihbb-2" edge="1">
          <mxGeometry relative="1" as="geometry">
            <Array as="points" />
            <mxPoint y="288" as="sourcePoint" />
            <mxPoint x="1136" y="288" as="targetPoint" />
          </mxGeometry>
        </mxCell>
        <mxCell id="NN_VJS9fBAGXD2zNihbb-89" style="vsdxID=1325;edgeStyle=none;startArrow=none;endArrow=none;startSize=5;endSize=5;strokeColor=#d8d8d8;spacingTop=0;spacingBottom=0;spacingLeft=0;spacingRight=0;verticalAlign=middle;html=1;labelBackgroundColor=#ffffff;rounded=0;fillOpacity=80;strokeOpacity=20;" parent="NN_VJS9fBAGXD2zNihbb-2" edge="1">
          <mxGeometry relative="1" as="geometry">
            <Array as="points" />
            <mxPoint y="304" as="sourcePoint" />
            <mxPoint x="1136" y="304" as="targetPoint" />
          </mxGeometry>
        </mxCell>
        <mxCell id="NN_VJS9fBAGXD2zNihbb-90" style="vsdxID=1326;edgeStyle=none;startArrow=none;endArrow=none;startSize=5;endSize=5;strokeColor=#7f7f7f;spacingTop=0;spacingBottom=0;spacingLeft=0;spacingRight=0;verticalAlign=middle;html=1;labelBackgroundColor=#ffffff;rounded=0;fillOpacity=80;strokeOpacity=20;" parent="NN_VJS9fBAGXD2zNihbb-2" edge="1">
          <mxGeometry relative="1" as="geometry">
            <Array as="points" />
            <mxPoint y="320" as="sourcePoint" />
            <mxPoint x="1136" y="320" as="targetPoint" />
          </mxGeometry>
        </mxCell>
        <mxCell id="NN_VJS9fBAGXD2zNihbb-91" style="vsdxID=1327;edgeStyle=none;startArrow=none;endArrow=none;startSize=5;endSize=5;strokeColor=#d8d8d8;spacingTop=0;spacingBottom=0;spacingLeft=0;spacingRight=0;verticalAlign=middle;html=1;labelBackgroundColor=#ffffff;rounded=0;fillOpacity=80;strokeOpacity=20;" parent="NN_VJS9fBAGXD2zNihbb-2" edge="1">
          <mxGeometry relative="1" as="geometry">
            <Array as="points" />
            <mxPoint y="336" as="sourcePoint" />
            <mxPoint x="1136" y="336" as="targetPoint" />
          </mxGeometry>
        </mxCell>
        <mxCell id="NN_VJS9fBAGXD2zNihbb-92" style="vsdxID=1328;edgeStyle=none;startArrow=none;endArrow=none;startSize=5;endSize=5;strokeColor=#d8d8d8;spacingTop=0;spacingBottom=0;spacingLeft=0;spacingRight=0;verticalAlign=middle;html=1;labelBackgroundColor=#ffffff;rounded=0;fillOpacity=80;strokeOpacity=20;" parent="NN_VJS9fBAGXD2zNihbb-2" edge="1">
          <mxGeometry relative="1" as="geometry">
            <Array as="points" />
            <mxPoint y="368" as="sourcePoint" />
            <mxPoint x="1136" y="368" as="targetPoint" />
          </mxGeometry>
        </mxCell>
        <mxCell id="NN_VJS9fBAGXD2zNihbb-93" style="vsdxID=1329;edgeStyle=none;startArrow=none;endArrow=none;startSize=5;endSize=5;strokeColor=#d8d8d8;spacingTop=0;spacingBottom=0;spacingLeft=0;spacingRight=0;verticalAlign=middle;html=1;labelBackgroundColor=#ffffff;rounded=0;fillOpacity=80;strokeOpacity=20;" parent="NN_VJS9fBAGXD2zNihbb-2" edge="1">
          <mxGeometry relative="1" as="geometry">
            <Array as="points" />
            <mxPoint y="384" as="sourcePoint" />
            <mxPoint x="1136" y="384" as="targetPoint" />
          </mxGeometry>
        </mxCell>
        <mxCell id="NN_VJS9fBAGXD2zNihbb-94" style="vsdxID=1330;edgeStyle=none;startArrow=none;endArrow=none;startSize=5;endSize=5;strokeColor=#7f7f7f;spacingTop=0;spacingBottom=0;spacingLeft=0;spacingRight=0;verticalAlign=middle;html=1;labelBackgroundColor=#ffffff;rounded=0;fillOpacity=80;strokeOpacity=20;" parent="NN_VJS9fBAGXD2zNihbb-2" edge="1">
          <mxGeometry relative="1" as="geometry">
            <Array as="points" />
            <mxPoint y="400" as="sourcePoint" />
            <mxPoint x="1136" y="400" as="targetPoint" />
          </mxGeometry>
        </mxCell>
        <mxCell id="NN_VJS9fBAGXD2zNihbb-95" style="vsdxID=1331;edgeStyle=none;startArrow=none;endArrow=none;startSize=5;endSize=5;strokeColor=#d8d8d8;spacingTop=0;spacingBottom=0;spacingLeft=0;spacingRight=0;verticalAlign=middle;html=1;labelBackgroundColor=#ffffff;rounded=0;fillOpacity=80;strokeOpacity=20;" parent="NN_VJS9fBAGXD2zNihbb-2" edge="1">
          <mxGeometry relative="1" as="geometry">
            <Array as="points" />
            <mxPoint y="416" as="sourcePoint" />
            <mxPoint x="1136" y="416" as="targetPoint" />
          </mxGeometry>
        </mxCell>
        <mxCell id="NN_VJS9fBAGXD2zNihbb-96" style="vsdxID=1332;edgeStyle=none;startArrow=none;endArrow=none;startSize=5;endSize=5;strokeColor=#d8d8d8;spacingTop=0;spacingBottom=0;spacingLeft=0;spacingRight=0;verticalAlign=middle;html=1;labelBackgroundColor=#ffffff;rounded=0;fillOpacity=80;strokeOpacity=20;" parent="NN_VJS9fBAGXD2zNihbb-2" edge="1">
          <mxGeometry relative="1" as="geometry">
            <Array as="points" />
            <mxPoint y="352" as="sourcePoint" />
            <mxPoint x="1136" y="352" as="targetPoint" />
          </mxGeometry>
        </mxCell>
        <mxCell id="NN_VJS9fBAGXD2zNihbb-97" style="vsdxID=1333;edgeStyle=none;startArrow=none;endArrow=none;startSize=5;endSize=5;strokeColor=#d8d8d8;spacingTop=0;spacingBottom=0;spacingLeft=0;spacingRight=0;verticalAlign=middle;html=1;labelBackgroundColor=#ffffff;rounded=0;fillOpacity=80;strokeOpacity=20;" parent="NN_VJS9fBAGXD2zNihbb-2" edge="1">
          <mxGeometry relative="1" as="geometry">
            <Array as="points" />
            <mxPoint y="432" as="sourcePoint" />
            <mxPoint x="1136" y="432" as="targetPoint" />
          </mxGeometry>
        </mxCell>
        <mxCell id="NN_VJS9fBAGXD2zNihbb-98" style="vsdxID=1334;edgeStyle=none;startArrow=none;endArrow=none;startSize=5;endSize=5;strokeColor=#d8d8d8;spacingTop=0;spacingBottom=0;spacingLeft=0;spacingRight=0;verticalAlign=middle;html=1;labelBackgroundColor=#ffffff;rounded=0;fillOpacity=80;strokeOpacity=20;" parent="NN_VJS9fBAGXD2zNihbb-2" edge="1">
          <mxGeometry relative="1" as="geometry">
            <Array as="points" />
            <mxPoint y="448" as="sourcePoint" />
            <mxPoint x="1136" y="448" as="targetPoint" />
          </mxGeometry>
        </mxCell>
        <mxCell id="NN_VJS9fBAGXD2zNihbb-99" style="vsdxID=1335;edgeStyle=none;startArrow=none;endArrow=none;startSize=5;endSize=5;strokeColor=#d8d8d8;spacingTop=0;spacingBottom=0;spacingLeft=0;spacingRight=0;verticalAlign=middle;html=1;labelBackgroundColor=#ffffff;rounded=0;fillOpacity=80;strokeOpacity=20;" parent="NN_VJS9fBAGXD2zNihbb-2" edge="1">
          <mxGeometry relative="1" as="geometry">
            <Array as="points" />
            <mxPoint y="464" as="sourcePoint" />
            <mxPoint x="1136" y="464" as="targetPoint" />
          </mxGeometry>
        </mxCell>
        <mxCell id="NN_VJS9fBAGXD2zNihbb-100" style="vsdxID=1336;edgeStyle=none;startArrow=none;endArrow=none;startSize=5;endSize=5;strokeColor=#7f7f7f;spacingTop=0;spacingBottom=0;spacingLeft=0;spacingRight=0;verticalAlign=middle;html=1;labelBackgroundColor=#ffffff;rounded=0;fillOpacity=80;strokeOpacity=20;" parent="NN_VJS9fBAGXD2zNihbb-2" edge="1">
          <mxGeometry relative="1" as="geometry">
            <Array as="points" />
            <mxPoint y="480" as="sourcePoint" />
            <mxPoint x="1136" y="480" as="targetPoint" />
          </mxGeometry>
        </mxCell>
        <mxCell id="NN_VJS9fBAGXD2zNihbb-101" style="vsdxID=1337;edgeStyle=none;startArrow=none;endArrow=none;startSize=5;endSize=5;strokeColor=#d8d8d8;spacingTop=0;spacingBottom=0;spacingLeft=0;spacingRight=0;verticalAlign=middle;html=1;labelBackgroundColor=#ffffff;rounded=0;fillOpacity=80;strokeOpacity=20;" parent="NN_VJS9fBAGXD2zNihbb-2" edge="1">
          <mxGeometry relative="1" as="geometry">
            <Array as="points" />
            <mxPoint y="512" as="sourcePoint" />
            <mxPoint x="1136" y="512" as="targetPoint" />
          </mxGeometry>
        </mxCell>
        <mxCell id="NN_VJS9fBAGXD2zNihbb-102" style="vsdxID=1338;edgeStyle=none;startArrow=none;endArrow=none;startSize=5;endSize=5;strokeColor=#d8d8d8;spacingTop=0;spacingBottom=0;spacingLeft=0;spacingRight=0;verticalAlign=middle;html=1;labelBackgroundColor=#ffffff;rounded=0;fillOpacity=80;strokeOpacity=20;" parent="NN_VJS9fBAGXD2zNihbb-2" edge="1">
          <mxGeometry relative="1" as="geometry">
            <Array as="points" />
            <mxPoint y="528" as="sourcePoint" />
            <mxPoint x="1136" y="528" as="targetPoint" />
          </mxGeometry>
        </mxCell>
        <mxCell id="NN_VJS9fBAGXD2zNihbb-103" style="vsdxID=1339;edgeStyle=none;startArrow=none;endArrow=none;startSize=5;endSize=5;strokeColor=#d8d8d8;spacingTop=0;spacingBottom=0;spacingLeft=0;spacingRight=0;verticalAlign=middle;html=1;labelBackgroundColor=#ffffff;rounded=0;fillOpacity=80;strokeOpacity=20;" parent="NN_VJS9fBAGXD2zNihbb-2" edge="1">
          <mxGeometry relative="1" as="geometry">
            <Array as="points" />
            <mxPoint y="544" as="sourcePoint" />
            <mxPoint x="1136" y="544" as="targetPoint" />
          </mxGeometry>
        </mxCell>
        <mxCell id="NN_VJS9fBAGXD2zNihbb-104" style="vsdxID=1340;edgeStyle=none;startArrow=none;endArrow=none;startSize=5;endSize=5;strokeColor=#7f7f7f;spacingTop=0;spacingBottom=0;spacingLeft=0;spacingRight=0;verticalAlign=middle;html=1;labelBackgroundColor=#ffffff;rounded=0;fillOpacity=80;strokeOpacity=20;" parent="NN_VJS9fBAGXD2zNihbb-2" edge="1">
          <mxGeometry relative="1" as="geometry">
            <Array as="points" />
            <mxPoint y="560" as="sourcePoint" />
            <mxPoint x="1136" y="560" as="targetPoint" />
          </mxGeometry>
        </mxCell>
        <mxCell id="NN_VJS9fBAGXD2zNihbb-105" style="vsdxID=1341;edgeStyle=none;startArrow=none;endArrow=none;startSize=5;endSize=5;strokeColor=#d8d8d8;spacingTop=0;spacingBottom=0;spacingLeft=0;spacingRight=0;verticalAlign=middle;html=1;labelBackgroundColor=#ffffff;rounded=0;fillOpacity=80;strokeOpacity=20;" parent="NN_VJS9fBAGXD2zNihbb-2" edge="1">
          <mxGeometry relative="1" as="geometry">
            <Array as="points" />
            <mxPoint y="496" as="sourcePoint" />
            <mxPoint x="1136" y="496" as="targetPoint" />
          </mxGeometry>
        </mxCell>
        <mxCell id="NN_VJS9fBAGXD2zNihbb-106" style="vsdxID=1342;edgeStyle=none;startArrow=none;endArrow=none;startSize=5;endSize=5;strokeColor=#d8d8d8;spacingTop=0;spacingBottom=0;spacingLeft=0;spacingRight=0;verticalAlign=middle;html=1;labelBackgroundColor=#ffffff;rounded=0;fillOpacity=80;strokeOpacity=20;" parent="NN_VJS9fBAGXD2zNihbb-2" edge="1">
          <mxGeometry relative="1" as="geometry">
            <Array as="points" />
            <mxPoint y="576" as="sourcePoint" />
            <mxPoint x="1136" y="576" as="targetPoint" />
          </mxGeometry>
        </mxCell>
        <mxCell id="NN_VJS9fBAGXD2zNihbb-107" style="vsdxID=1343;edgeStyle=none;startArrow=none;endArrow=none;startSize=5;endSize=5;strokeColor=#d8d8d8;spacingTop=0;spacingBottom=0;spacingLeft=0;spacingRight=0;verticalAlign=middle;html=1;labelBackgroundColor=#ffffff;rounded=0;fillOpacity=80;strokeOpacity=20;" parent="NN_VJS9fBAGXD2zNihbb-2" edge="1">
          <mxGeometry relative="1" as="geometry">
            <Array as="points" />
            <mxPoint y="592" as="sourcePoint" />
            <mxPoint x="1136" y="592" as="targetPoint" />
          </mxGeometry>
        </mxCell>
        <mxCell id="NN_VJS9fBAGXD2zNihbb-108" style="vsdxID=1344;edgeStyle=none;startArrow=none;endArrow=none;startSize=5;endSize=5;strokeColor=#d8d8d8;spacingTop=0;spacingBottom=0;spacingLeft=0;spacingRight=0;verticalAlign=middle;html=1;labelBackgroundColor=#ffffff;rounded=0;fillOpacity=80;strokeOpacity=20;" parent="NN_VJS9fBAGXD2zNihbb-2" edge="1">
          <mxGeometry relative="1" as="geometry">
            <Array as="points" />
            <mxPoint y="608" as="sourcePoint" />
            <mxPoint x="1136" y="608" as="targetPoint" />
          </mxGeometry>
        </mxCell>
        <mxCell id="NN_VJS9fBAGXD2zNihbb-109" style="vsdxID=1345;edgeStyle=none;startArrow=none;endArrow=none;startSize=5;endSize=5;strokeColor=#d8d8d8;spacingTop=0;spacingBottom=0;spacingLeft=0;spacingRight=0;verticalAlign=middle;html=1;labelBackgroundColor=#ffffff;rounded=0;fillOpacity=80;strokeOpacity=20;" parent="NN_VJS9fBAGXD2zNihbb-2" edge="1">
          <mxGeometry relative="1" as="geometry">
            <Array as="points" />
            <mxPoint y="624" as="sourcePoint" />
            <mxPoint x="1136" y="624" as="targetPoint" />
          </mxGeometry>
        </mxCell>
        <mxCell id="NN_VJS9fBAGXD2zNihbb-110" style="vsdxID=1346;edgeStyle=none;startArrow=none;endArrow=none;startSize=5;endSize=5;strokeColor=#d8d8d8;spacingTop=0;spacingBottom=0;spacingLeft=0;spacingRight=0;verticalAlign=middle;html=1;labelBackgroundColor=#ffffff;rounded=0;fillOpacity=80;strokeOpacity=20;" parent="NN_VJS9fBAGXD2zNihbb-2" edge="1">
          <mxGeometry relative="1" as="geometry">
            <Array as="points" />
            <mxPoint y="656" as="sourcePoint" />
            <mxPoint x="1136" y="656" as="targetPoint" />
          </mxGeometry>
        </mxCell>
        <mxCell id="NN_VJS9fBAGXD2zNihbb-111" style="vsdxID=1347;edgeStyle=none;startArrow=none;endArrow=none;startSize=5;endSize=5;strokeColor=#d8d8d8;spacingTop=0;spacingBottom=0;spacingLeft=0;spacingRight=0;verticalAlign=middle;html=1;labelBackgroundColor=#ffffff;rounded=0;fillOpacity=80;strokeOpacity=20;" parent="NN_VJS9fBAGXD2zNihbb-2" edge="1">
          <mxGeometry relative="1" as="geometry">
            <Array as="points" />
            <mxPoint y="672" as="sourcePoint" />
            <mxPoint x="1136" y="672" as="targetPoint" />
          </mxGeometry>
        </mxCell>
        <mxCell id="NN_VJS9fBAGXD2zNihbb-112" style="vsdxID=1348;edgeStyle=none;startArrow=none;endArrow=none;startSize=5;endSize=5;strokeColor=#d8d8d8;spacingTop=0;spacingBottom=0;spacingLeft=0;spacingRight=0;verticalAlign=middle;html=1;labelBackgroundColor=#ffffff;rounded=0;fillOpacity=80;strokeOpacity=20;" parent="NN_VJS9fBAGXD2zNihbb-2" edge="1">
          <mxGeometry relative="1" as="geometry">
            <Array as="points" />
            <mxPoint y="688" as="sourcePoint" />
            <mxPoint x="1136" y="688" as="targetPoint" />
          </mxGeometry>
        </mxCell>
        <mxCell id="NN_VJS9fBAGXD2zNihbb-113" style="vsdxID=1349;edgeStyle=none;startArrow=none;endArrow=none;startSize=5;endSize=5;strokeColor=#d8d8d8;spacingTop=0;spacingBottom=0;spacingLeft=0;spacingRight=0;verticalAlign=middle;html=1;labelBackgroundColor=#ffffff;rounded=0;fillOpacity=80;strokeOpacity=20;" parent="NN_VJS9fBAGXD2zNihbb-2" edge="1">
          <mxGeometry relative="1" as="geometry">
            <Array as="points" />
            <mxPoint y="704" as="sourcePoint" />
            <mxPoint x="1136" y="704" as="targetPoint" />
          </mxGeometry>
        </mxCell>
        <mxCell id="NN_VJS9fBAGXD2zNihbb-114" style="vsdxID=1350;edgeStyle=none;startArrow=none;endArrow=none;startSize=5;endSize=5;strokeColor=#7f7f7f;spacingTop=0;spacingBottom=0;spacingLeft=0;spacingRight=0;verticalAlign=middle;html=1;labelBackgroundColor=#ffffff;rounded=0;fillOpacity=80;strokeOpacity=20;" parent="NN_VJS9fBAGXD2zNihbb-2" edge="1">
          <mxGeometry relative="1" as="geometry">
            <Array as="points" />
            <mxPoint y="640" as="sourcePoint" />
            <mxPoint x="1136" y="640" as="targetPoint" />
          </mxGeometry>
        </mxCell>
        <mxCell id="NN_VJS9fBAGXD2zNihbb-115" style="vsdxID=1351;edgeStyle=none;startArrow=none;endArrow=none;startSize=5;endSize=5;strokeColor=#7f7f7f;spacingTop=0;spacingBottom=0;spacingLeft=0;spacingRight=0;verticalAlign=middle;html=1;labelBackgroundColor=#ffffff;rounded=0;fillOpacity=80;strokeOpacity=20;" parent="NN_VJS9fBAGXD2zNihbb-2" edge="1">
          <mxGeometry relative="1" as="geometry">
            <Array as="points" />
            <mxPoint y="720" as="sourcePoint" />
            <mxPoint x="1136" y="720" as="targetPoint" />
          </mxGeometry>
        </mxCell>
        <mxCell id="NN_VJS9fBAGXD2zNihbb-116" style="vsdxID=1352;edgeStyle=none;startArrow=none;endArrow=none;startSize=5;endSize=5;strokeColor=#d8d8d8;spacingTop=0;spacingBottom=0;spacingLeft=0;spacingRight=0;verticalAlign=middle;html=1;labelBackgroundColor=#ffffff;rounded=0;fillOpacity=80;strokeOpacity=20;" parent="NN_VJS9fBAGXD2zNihbb-2" edge="1">
          <mxGeometry relative="1" as="geometry">
            <Array as="points" />
            <mxPoint y="736" as="sourcePoint" />
            <mxPoint x="1136" y="736" as="targetPoint" />
          </mxGeometry>
        </mxCell>
        <mxCell id="NN_VJS9fBAGXD2zNihbb-117" style="vsdxID=1353;edgeStyle=none;startArrow=none;endArrow=none;startSize=5;endSize=5;strokeColor=#d8d8d8;spacingTop=0;spacingBottom=0;spacingLeft=0;spacingRight=0;verticalAlign=middle;html=1;labelBackgroundColor=#ffffff;rounded=0;fillOpacity=80;strokeOpacity=20;" parent="NN_VJS9fBAGXD2zNihbb-2" edge="1">
          <mxGeometry relative="1" as="geometry">
            <Array as="points" />
            <mxPoint y="752" as="sourcePoint" />
            <mxPoint x="1136" y="752" as="targetPoint" />
          </mxGeometry>
        </mxCell>
        <mxCell id="NN_VJS9fBAGXD2zNihbb-118" style="vsdxID=1354;edgeStyle=none;startArrow=none;endArrow=none;startSize=5;endSize=5;strokeColor=#d8d8d8;spacingTop=0;spacingBottom=0;spacingLeft=0;spacingRight=0;verticalAlign=middle;html=1;labelBackgroundColor=#ffffff;rounded=0;fillOpacity=80;strokeOpacity=20;" parent="NN_VJS9fBAGXD2zNihbb-2" edge="1">
          <mxGeometry relative="1" as="geometry">
            <Array as="points" />
            <mxPoint y="768" as="sourcePoint" />
            <mxPoint x="1136" y="768" as="targetPoint" />
          </mxGeometry>
        </mxCell>
        <mxCell id="NN_VJS9fBAGXD2zNihbb-119" style="vsdxID=1359;edgeStyle=none;startArrow=none;endArrow=none;startSize=5;endSize=5;strokeColor=#d8d8d8;spacingTop=0;spacingBottom=0;spacingLeft=0;spacingRight=0;verticalAlign=middle;html=1;labelBackgroundColor=#ffffff;rounded=0;fillOpacity=80;strokeOpacity=20;" parent="NN_VJS9fBAGXD2zNihbb-2" edge="1">
          <mxGeometry relative="1" as="geometry">
            <Array as="points" />
            <mxPoint y="784" as="sourcePoint" />
            <mxPoint x="1136" y="784" as="targetPoint" />
          </mxGeometry>
        </mxCell>
        <mxCell id="NN_VJS9fBAGXD2zNihbb-120" style="vsdxID=1401;edgeStyle=none;startArrow=none;endArrow=none;startSize=5;endSize=5;strokeColor=#d8d8d8;spacingTop=0;spacingBottom=0;spacingLeft=0;spacingRight=0;verticalAlign=middle;html=1;labelBackgroundColor=#ffffff;rounded=0;fillOpacity=80;strokeOpacity=20;" parent="NN_VJS9fBAGXD2zNihbb-2" edge="1">
          <mxGeometry relative="1" as="geometry">
            <Array as="points" />
            <mxPoint y="32" as="sourcePoint" />
            <mxPoint x="1136" y="32" as="targetPoint" />
          </mxGeometry>
        </mxCell>
        <mxCell id="NN_VJS9fBAGXD2zNihbb-121" style="vsdxID=1400;edgeStyle=none;startArrow=none;endArrow=none;startSize=5;endSize=5;strokeColor=#d8d8d8;spacingTop=0;spacingBottom=0;spacingLeft=0;spacingRight=0;verticalAlign=middle;html=1;labelBackgroundColor=#ffffff;rounded=0;fillOpacity=80;strokeOpacity=20;" parent="NN_VJS9fBAGXD2zNihbb-2" edge="1">
          <mxGeometry relative="1" as="geometry">
            <Array as="points" />
            <mxPoint y="16" as="sourcePoint" />
            <mxPoint x="1136" y="16" as="targetPoint" />
          </mxGeometry>
        </mxCell>
        <mxCell id="NN_VJS9fBAGXD2zNihbb-122" style="vsdxID=1362;edgeStyle=none;startArrow=none;endArrow=none;startSize=5;endSize=5;strokeColor=#0F0F0F;spacingTop=0;spacingBottom=0;spacingLeft=0;spacingRight=0;verticalAlign=middle;html=1;labelBackgroundColor=#ffffff;rounded=0;fillOpacity=80;strokeOpacity=20;" parent="NN_VJS9fBAGXD2zNihbb-2" edge="1">
          <mxGeometry relative="1" as="geometry">
            <Array as="points" />
            <mxPoint as="sourcePoint" />
            <mxPoint y="800" as="targetPoint" />
          </mxGeometry>
        </mxCell>
        <mxCell id="NN_VJS9fBAGXD2zNihbb-123" style="vsdxID=1310;edgeStyle=none;startArrow=none;endArrow=none;startSize=5;endSize=5;strokeColor=#7f7f7f;spacingTop=0;spacingBottom=0;spacingLeft=0;spacingRight=0;verticalAlign=middle;html=1;labelBackgroundColor=#ffffff;rounded=0;fillOpacity=80;strokeOpacity=20;" parent="NN_VJS9fBAGXD2zNihbb-2" edge="1">
          <mxGeometry relative="1" as="geometry">
            <Array as="points" />
            <mxPoint as="sourcePoint" />
            <mxPoint x="1136" as="targetPoint" />
          </mxGeometry>
        </mxCell>
        <mxCell id="NN_VJS9fBAGXD2zNihbb-124" value="Connection" style="" parent="NN_VJS9fBAGXD2zNihbb-0" />
        <mxCell id="NN_VJS9fBAGXD2zNihbb-127" value="Dimension" style="locked=1;" parent="NN_VJS9fBAGXD2zNihbb-0" />
        <object label="%Dimension%: %Value%%UoM%" Dimension="H" placeholders="1" UoM="mm" Value="22" id="NN_VJS9fBAGXD2zNihbb-128">
          <mxCell style="shape=dimension;direction=north;whiteSpace=wrap;html=1;align=right;points=[];verticalAlign=middle;labelBackgroundColor=#ffffff;fillColor=none;movableLabel=1;fontColor=#a6a6a6;strokeColor=#a6a6a6;" parent="NN_VJS9fBAGXD2zNihbb-127" vertex="1">
            <mxGeometry x="48" y="144" width="54" height="353" as="geometry">
              <mxPoint x="-8" as="offset" />
            </mxGeometry>
          </mxCell>
        </object>
        <object label="%Dimension%: %Value%%UoM%" placeholders="1" Dimension="W" UoM="mm" Value="15" id="NN_VJS9fBAGXD2zNihbb-129">
          <mxCell style="shape=dimension;whiteSpace=wrap;html=1;align=center;points=[];verticalAlign=bottom;spacingBottom=-5;labelBackgroundColor=#ffffff;fillColor=none;movableLabel=1;fontColor=#a6a6a6;strokeColor=#a6a6a6;strokeWidth=1;" parent="NN_VJS9fBAGXD2zNihbb-127" vertex="1">
            <mxGeometry x="256" y="48" width="239" height="38" as="geometry">
              <mxPoint x="1" y="-14" as="offset" />
            </mxGeometry>
          </mxCell>
        </object>
        <mxCell id="NN_VJS9fBAGXD2zNihbb-130" value="Option1" style="locked=1;" parent="NN_VJS9fBAGXD2zNihbb-0" />
        <mxCell id="NN_VJS9fBAGXD2zNihbb-131" value="Label" style="locked=1;" parent="NN_VJS9fBAGXD2zNihbb-0" />
        <mxCell id="NN_VJS9fBAGXD2zNihbb-132" value="Origo" style="locked=1;" parent="NN_VJS9fBAGXD2zNihbb-0" />
        <mxCell id="NN_VJS9fBAGXD2zNihbb-134" value="Symbol" style="locked=1;" parent="NN_VJS9fBAGXD2zNihbb-0" />
        <mxCell id="LgfQOALBtSMDCI_zHHA_-1" value="S" style="text;html=1;strokeColor=none;fillColor=none;align=center;verticalAlign=middle;whiteSpace=wrap;rounded=0;rotation=30;fontStyle=1;fontSize=42;fontFamily=Lucida Console;" parent="NN_VJS9fBAGXD2zNihbb-134" vertex="1">
          <mxGeometry x="268" y="437" width="64" height="30" as="geometry" />
        </mxCell>
        <mxCell id="LgfQOALBtSMDCI_zHHA_-3" value="" style="endArrow=none;html=1;rounded=0;startArrow=none;entryX=0.5;entryY=1;entryDx=0;entryDy=0;" parent="NN_VJS9fBAGXD2zNihbb-134" source="f6TOfVWz0VC5qWiPb5dJ-3" target="H_hsnOgvmmw8vlDFuwdq-2" edge="1">
          <mxGeometry width="50" height="50" relative="1" as="geometry">
            <mxPoint x="296.02" y="471.29" as="sourcePoint" />
            <mxPoint x="444.53999999999996" y="215.7128129211021" as="targetPoint" />
          </mxGeometry>
        </mxCell>
        <object label="origo" id="f6TOfVWz0VC5qWiPb5dJ-3">
          <mxCell style="vsdxID=1407;fillColor=none;gradientColor=none;shape=stencil(rVFbDsIgEDwNnyQU4glqvcfGblsilmZBS28vZGMsxg9j/JvZmX1kR5g2TLCg0CpE8hdcbR8nYY5CaztPSDZmJEwnTDt4wpH8be6ZL1CcBV39vUxI3KdKh1YbswPTEzuBzlmiVGmKau9zUKM+jlJJQrJBko8QrZ+rrQ5oRJnXyMHBWElhRVx25ebnw/5zVvPFWRm83jxY5zilvf4eSy5xpKZ7AA==);strokeColor=#ff0000;strokeWidth=1;points=[[0.5,0.5,0,0,0]];labelBackgroundColor=none;rounded=0;html=1;whiteSpace=wrap;aspect=fixed;noLabel=1;snapToPoint=1;rotation=-60;" parent="NN_VJS9fBAGXD2zNihbb-134" vertex="1">
            <mxGeometry x="376" y="310" width="8" height="8" as="geometry" />
          </mxCell>
        </object>
        <mxCell id="LgfQOALBtSMDCI_zHHA_-4" value="" style="endArrow=none;html=1;rounded=0;exitX=0.5;exitY=0;exitDx=0;exitDy=0;" parent="NN_VJS9fBAGXD2zNihbb-134" source="H_hsnOgvmmw8vlDFuwdq-0" target="f6TOfVWz0VC5qWiPb5dJ-3" edge="1">
          <mxGeometry width="50" height="50" relative="1" as="geometry">
            <mxPoint x="316.27" y="427.242250588359" as="sourcePoint" />
            <mxPoint x="472.02" y="166.29" as="targetPoint" />
          </mxGeometry>
        </mxCell>
        <mxCell id="H_hsnOgvmmw8vlDFuwdq-0" value="" style="whiteSpace=wrap;html=1;aspect=fixed;strokeColor=#000000;fillColor=none;rotation=30;" parent="NN_VJS9fBAGXD2zNihbb-134" vertex="1">
          <mxGeometry x="268.27" y="420" width="64" height="64" as="geometry" />
        </mxCell>
        <mxCell id="H_hsnOgvmmw8vlDFuwdq-1" value="S" style="text;html=1;strokeColor=none;fillColor=none;align=center;verticalAlign=middle;whiteSpace=wrap;rounded=0;rotation=30;fontStyle=1;fontSize=42;fontFamily=Lucida Console;" parent="NN_VJS9fBAGXD2zNihbb-134" vertex="1">
          <mxGeometry x="420" y="173" width="64" height="30" as="geometry" />
        </mxCell>
        <mxCell id="H_hsnOgvmmw8vlDFuwdq-2" value="" style="whiteSpace=wrap;html=1;aspect=fixed;strokeColor=#000000;fillColor=none;rotation=30;" parent="NN_VJS9fBAGXD2zNihbb-134" vertex="1">
          <mxGeometry x="420.27" y="156" width="64" height="64" as="geometry" />
        </mxCell>
      </root>
    </mxGraphModel>
  </diagram>
</mxfile>
